nColumns=19
nRows=80
DataType=double
version=3
OpenSimVersion=4.1
endheader
time	ground_force_1_vx	ground_force_1_vy	ground_force_1_vz	ground_force_1_px	ground_force_1_py	ground_force_1_pz	ground_force_1_mx	ground_force_1_my	ground_force_1_mz	ground_force_2_vx	ground_force_2_vy	ground_force_2_vz	ground_force_2_px	ground_force_2_py	ground_force_2_pz	ground_force_2_mx	ground_force_2_my	ground_force_2_mz
2.7	39.1694	48.1673	6.74628	0.375624	0	-0.23337	0	-1.65493	0	0	0	0	0.000989503	0	-0.000318252	0	0	0
2.70833	16.8598	21.6264	5.08267	0.404666	0	-0.147978	0	-1.73776	0	0	0	0	0.000989523	0	-0.000318238	0	0	0
2.71667	0	0	0	0.000989112	0	-0.000318369	0	0	0	0	0	0	0.000989542	0	-0.000318223	0	0	0
2.725	0	0	0	0.000989132	0	-0.000318355	0	0	0	0	0	0	0.000989562	0	-0.000318208	0	0	0
2.73333	0	0	0	0.000989153	0	-0.00031834	0	0	0	0	0	0	0.000989583	0	-0.000318193	0	0	0
2.74167	0	0	0	0.000989173	0	-0.000318325	0	0	0	0	0	0	0.000989603	0	-0.000318178	0	0	0
2.75	0	0	0	0.000989194	0	-0.000318309	0	0	0	0	0	0	0.000989624	0	-0.000318163	0	0	0
2.75833	0	0	0	0.000989215	0	-0.000318294	0	0	0	0	0	0	0.000989644	0	-0.000318148	0	0	0
2.76667	0	0	0	0.000989236	0	-0.000318279	0	0	0	0	0	0	0.000989665	0	-0.000318132	0	0	0
2.775	0	0	0	0.000989257	0	-0.000318263	0	0	0	0	0	0	0.000989686	0	-0.000318117	0	0	0
2.78333	0	0	0	0.000989278	0	-0.000318247	0	0	0	-3.4381	15.8434	-2.2089	0.993054	0	-0.267198	0	-0.4585	0
2.79167	0	0	0	0.0009893	0	-0.000318232	0	0	0	-16.095	46.4784	-4.21728	0.935206	0	-0.390527	0	-0.798311	0
2.8	0	0	0	0.000989322	0	-0.000318216	0	0	0	-45.4864	139.947	-3.71081	0.912467	0	-0.430892	0	-1.52495	0
2.80833	0	0	0	0.000989343	0	-0.0003182	0	0	0	-94.5459	351.306	3.61997	0.913563	0	-0.437623	0	-2.46729	0
2.81667	0	0	0	0.000989365	0	-0.000318184	0	0	0	-148.268	684.758	19.6387	0.917761	0	-0.432068	0	-3.31987	0
2.825	0	0	0	0.000989388	0	-0.000318168	0	0	0	-181.627	1024.86	36.9375	0.915135	0	-0.423824	0	-3.77515	0
2.83333	0	0	0	0.00098941	0	-0.000318151	0	0	0	-192.338	1239.81	40.2036	0.90219	0	-0.41944	0	-3.72313	0
2.84167	0	0	0	0.000989432	0	-0.000318135	0	0	0	-203.992	1332.73	23.8421	0.880003	0	-0.422341	0	-3.38957	0
2.85	0	0	0	0.000989455	0	-0.000318118	0	0	0	-225.617	1390.44	5.79228	0.853837	0	-0.428865	0	-3.25732	0
2.85833	0	0	0	0.000989477	0	-0.000318102	0	0	0	-239.944	1473.36	10.7796	0.827144	0	-0.431237	0	-3.76189	0
2.86667	0	0	0	0.0009895	0	-0.000318085	0	0	0	-224.384	1575.9	40.1866	0.79822	0	-0.428855	0	-4.98039	0
2.875	0	0	0	0.000989523	0	-0.000318068	0	0	0	-172.892	1657.2	70.063	0.765686	0	-0.427461	0	-6.57475	0
2.88333	0	0	0	0.000989546	0	-0.000318051	0	0	0	-99.0731	1689.01	79.9633	0.730528	0	-0.430022	0	-8.01673	0
2.89167	0	0	0	0.000989569	0	-0.000318034	0	0	0	-21.581	1672.64	73.0895	0.694861	0	-0.434041	0	-8.8723	0
2.9	0	0	0	0.000989593	0	-0.000318017	0	0	0	46.0964	1621.67	64.4748	0.660955	0	-0.435657	0	-8.93098	0
2.90833	0	0	0	0.000989616	0	-0.000318	0	0	0	104.375	1536.92	59.2912	0.628779	0	-0.434451	0	-8.17398	0
2.91667	0	0	0	0.000989639	0	-0.000317983	0	0	0	161.273	1409.46	50.6985	0.595176	0	-0.433002	0	-6.71059	0
2.925	0	0	0	0.000989663	0	-0.000317966	0	0	0	212.645	1238.64	33.8272	0.558615	0	-0.432977	0	-4.75606	0
2.93333	0	0	0	0.000989687	0	-0.000317948	0	0	0	243.644	1036.15	12.9997	0.523115	0	-0.433281	0	-2.61511	0
2.94167	0	0	0	0.00098971	0	-0.000317931	0	0	0	246.383	817.378	-4.56374	0.493338	0	-0.432096	0	-0.624241	0
2.95	0	0	0	0.000989734	0	-0.000317914	0	0	0	226.486	600.083	-16.1154	0.469224	0	-0.428779	-0	0.929349	-0
2.95833	0	0	0	0.000989758	0	-0.000317896	0	0	0	190.588	403.455	-22.7862	0.448298	0	-0.424176	-0	1.86422	-0
2.96667	0	0	0	0.000989782	0	-0.000317878	0	0	0	141.449	242.392	-25.2828	0.427352	0	-0.420751	-0	2.1203	-0
2.975	0	0	0	0.000989806	0	-0.000317861	0	0	0	87.0614	126.595	-23.1116	0.401771	0	-0.419845	-0	1.75108	-0
2.98333	0	0	0	0.00098983	0	-0.000317843	0	0	0	42.8317	57.9738	-17.0732	0.379773	0	-0.410081	-0	0.905672	-0
2.99167	0	0	0	0.000989855	0	-0.000317825	0	0	0	18.7941	27.1288	-10.0383	0.438252	0	-0.346116	0	-0.203626	0
3	0	0	0	0.000989879	0	-0.000317807	0	0	0	9.45874	16.152	-4.72387	0.639077	0	-0.220993	0	-1.34931	0
3.00833	0	0	0	0.000989903	0	-0.00031779	0	0	0	3.90456	10.676	-1.88554	0.896806	0	-0.0954186	0	-2.33623	0
3.01667	0	0	0	0.000989928	0	-0.000317772	0	0	0	0	0	0	0.000990352	0	-0.000317625	0	0	0
3.025	0	0	0	0.000989952	0	-0.000317754	0	0	0	0	0	0	0.000990376	0	-0.000317607	0	0	0
3.03333	0	0	0	0.000989977	0	-0.000317736	0	0	0	0	0	0	0.0009904	0	-0.000317589	0	0	0
3.04167	0	0	0	0.000990001	0	-0.000317718	0	0	0	0	0	0	0.000990425	0	-0.000317571	0	0	0
3.05	0	0	0	0.000990026	0	-0.0003177	0	0	0	0	0	0	0.000990449	0	-0.000317553	0	0	0
3.05833	0	0	0	0.000990051	0	-0.000317682	0	0	0	0	0	0	0.000990474	0	-0.000317535	0	0	0
3.06667	0	0	0	0.000990075	0	-0.000317664	0	0	0	0	0	0	0.000990498	0	-0.000317517	0	0	0
3.075	-3.96406	19.1431	-2.55455	0.794795	0	-0.16791	-0	1.4563	-0	0	0	0	0.000990523	0	-0.000317499	0	0	0
3.08333	-16.4365	46.3279	-7.0271	0.833049	0	-0.274613	-0	2.12053	-0	0	0	0	0.000990547	0	-0.000317481	0	0	0
3.09167	-45.1341	122.578	-12.9293	0.875225	0	-0.322358	-0	2.12006	-0	0	0	0	0.000990572	0	-0.000317463	0	0	0
3.1	-86.0956	297.481	-16.7186	0.898855	0	-0.3357	-0	1.31325	-0	0	0	0	0.000990596	0	-0.000317445	0	0	0
3.10833	-123.657	588.358	-13.1391	0.904613	0	-0.338339	0	-0.231571	0	0	0	0	0.000990621	0	-0.000317426	0	0	0
3.11667	-145.096	914.55	-0.156091	0.898983	0	-0.338112	0	-2.19424	0	0	0	0	0.000990646	0	-0.000317408	0	0	0
3.125	-160.606	1153.46	15.5223	0.885614	0	-0.337367	0	-4.07049	0	0	0	0	0.00099067	0	-0.00031739	0	0	0
3.13333	-187.983	1283.29	21.8353	0.865644	0	-0.337617	0	-5.34891	0	0	0	0	0.000990695	0	-0.000317372	0	0	0
3.14167	-215.711	1374.34	14.3248	0.839667	0	-0.339282	0	-5.70806	0	0	0	0	0.00099072	0	-0.000317354	0	0	0
3.15	-217.964	1480.38	1.84821	0.810088	0	-0.340331	0	-5.10945	0	0	0	0	0.000990744	0	-0.000317335	0	0	0
3.15833	-190.58	1596.88	-4.50377	0.779816	0	-0.339204	0	-3.74212	0	0	0	0	0.000990769	0	-0.000317317	0	0	0
3.16667	-144.954	1690.07	-4.18777	0.750093	0	-0.336931	0	-1.89808	0	0	0	0	0.000990793	0	-0.000317299	0	0	0
3.175	-90.1504	1732.27	-4.68721	0.720428	0	-0.335119	-0	0.112901	-0	0	0	0	0.000990818	0	-0.000317281	0	0	0
3.18333	-31.6654	1714.5	-9.61166	0.689546	0	-0.334109	-0	1.98629	-0	0	0	0	0.000990843	0	-0.000317263	0	0	0
3.19167	26.4412	1645.23	-14.7447	0.656475	0	-0.333082	-0	3.43968	-0	0	0	0	0.000990867	0	-0.000317245	0	0	0
3.2	83.1383	1539.73	-14.8233	0.621886	0	-0.331427	-0	4.26333	-0	0	0	0	0.000990892	0	-0.000317227	0	0	0
3.20833	138.545	1407.66	-9.33355	0.58741	0	-0.329694	-0	4.3791	-0	0	0	0	0.000990916	0	-0.000317208	0	0	0
3.21667	187.019	1251.44	-0.990441	0.553916	0	-0.328691	-0	3.86158	-0	0	0	0	0.000990941	0	-0.00031719	0	0	0
3.225	220.005	1072.72	7.84685	0.521623	0	-0.328364	-0	2.90768	-0	0	0	0	0.000990965	0	-0.000317172	0	0	0
3.23333	233.043	878.011	15.7025	0.490875	0	-0.327992	-0	1.77376	-0	0	0	0	0.00099099	0	-0.000317154	0	0	0
3.24167	226.521	676.759	21.0402	0.460824	0	-0.326853	-0	0.705316	-0	0	0	0	0.000991014	0	-0.000317136	0	0	0
3.25	202.966	482.627	22.5154	0.429354	0	-0.324639	0	-0.122251	0	0	0	0	0.000991038	0	-0.000317118	0	0	0
3.25833	164.531	313.355	20.0468	0.396376	0	-0.321262	0	-0.636528	0	0	0	0	0.000991062	0	-0.000317101	0	0	0
3.26667	115.978	182.528	15.1342	0.368315	0	-0.315704	0	-0.86552	0	0	0	0	0.000991087	0	-0.000317083	0	0	0
3.275	68.2741	94.2049	9.95325	0.364954	0	-0.303315	0	-0.903249	0	0	0	0	0.000991111	0	-0.000317065	0	0	0
3.28333	33.2753	43.7444	6.0457	0.438431	0	-0.26848	0	-0.860533	0	0	0	0	0.000991135	0	-0.000317047	0	0	0
3.29167	13.9746	20.0081	3.72456	0.663163	0	-0.18052	0	-0.822236	0	0	0	0	0.000991159	0	-0.000317029	0	0	0
3.3	5.19872	10.3408	2.52575	0.888299	0	-0.0416002	0	-0.825191	0	0	0	0	0.000991183	0	-0.000317012	0	0	0
3.30833	0	0	0	0.000990789	0	-0.000317141	0	0	0	0	0	0	0.000991206	0	-0.000316994	0	0	0
3.31667	0	0	0	0.000990813	0	-0.000317123	0	0	0	0	0	0	0.00099123	0	-0.000316977	0	0	0
3.325	0	0	0	0.000990837	0	-0.000317106	0	0	0	0	0	0	0.000991254	0	-0.000316959	0	0	0
3.33333	0	0	0	0.000990861	0	-0.000317088	0	0	0	0	0	0	0.000991277	0	-0.000316942	0	0	0
3.34167	0	0	0	0.000990884	0	-0.000317071	0	0	0	0	0	0	0.000991301	0	-0.000316924	0	0	0
3.35	0	0	0	0.000990908	0	-0.000317054	0	0	0	0	0	0	0.000991324	0	-0.000316907	0	0	0
3.35833	0	0	0	0.000990931	0	-0.000317036	0	0	0	0	0	0	0.000991348	0	-0.00031689	0	0	0
